# xmcd
# Track frame offsets:
# 150
# 11953
# 25967
# 38906
# 50604
# 59405
# 71404
# 82264
# 94320
# 107650
# 118163
# 134538
#
# Disc length: 1959 seconds
# Revision: 1
# Processed by: cddbd v1.5.2PL0 Copyright (c) Steve Scherf et al.
# Submitted via: VisiTrax 2.11.2.271 - For more info visit www.synapsa.com
#
DISCID=b107a50c
DTITLE=Slim Dusty - Glory Bound Train
DYEAR=1975
DGENRE=Australian Country
TTITLE0=Slim Dusty - Glory Bound Train
TTITLE1=Slim Dusty - Ten Golden Rules
TTITLE2=Joy McKean - Bye And Bye
TTITLE3=Slim Dusty - Calvary Hill
TTITLE4=Anne Kirkpatrick - Wingin' My Way Back Home
TTITLE5=Slim Dusty - That's The Right Kind Of Religion For Me
TTITLE6=Anne Kirkpatrick - Precious Lord
TTITLE7=Slim Dusty - What The Man Said
TTITLE8=Slim Dusty - Joybells In Your Heart
TTITLE9=Joy McKean - It's Worth It
TTITLE10=Slim Dusty - The Softest Touch In Town
TTITLE11=Slim Dusty - Heaven Country Style
EXTD=1996 EMI Music Australia
EXTT0=
EXTT1=
EXTT2=
EXTT3=
EXTT4=
EXTT5=
EXTT6=
EXTT7=
EXTT8=
EXTT9=
EXTT10=
EXTT11=
PLAYORDER=
